<svg width="32" height="32" fill="none" viewBox="0 0 32 32" xmlns="http://www.w3.org/2000/svg"><g clip-path="url(#bcspx_full__clip0_2584_5)"><path fill="#fff" d="M16 32c8.837 0 16-7.163 16-16S24.837 0 16 0 0 7.164 0 16s7.164 16 16 16"/><path fill="#c32933" d="M16 32c8.837 0 16-7.163 16-16S24.837 0 16 0 0 7.163 0 16s7.163 16 16 16"/><path fill="#fff" d="M9.09 19.71c-.5 0-.95-.09-1.34-.28-.39-.18-.7-.44-.93-.76s-.35-.7-.36-1.12h1.49c.02.28.14.51.35.69.22.17.48.26.79.26.24 0 .45-.05.64-.16s.33-.26.44-.45.16-.41.16-.67-.05-.48-.16-.67-.26-.35-.45-.45c-.19-.11-.41-.16-.65-.17-.21 0-.42.04-.62.13s-.36.21-.47.36l-1.37-.24.34-3.84h4.45v1.26H8.22l-.19 1.82h.04c.13-.18.32-.33.58-.45q.39-.18.87-.18c.44 0 .83.1 1.17.31s.61.49.81.85.3.77.29 1.24c0 .49-.11.93-.34 1.31s-.55.68-.96.89c-.41.22-.88.32-1.42.32zm6.64.06c-.61 0-1.14-.15-1.57-.45-.44-.3-.78-.73-1.01-1.3-.24-.57-.35-1.25-.35-2.04s.12-1.47.35-2.03c.24-.56.57-.98 1.01-1.28.44-.29.96-.44 1.57-.44s1.13.15 1.57.44.78.72 1.01 1.28c.24.56.35 1.23.35 2.03s-.12 1.48-.35 2.05c-.24.57-.57 1-1.01 1.3s-.96.45-1.57.45zm0-1.28c.42 0 .75-.21 1-.63s.37-1.05.37-1.89c0-.55-.06-1.01-.17-1.38s-.27-.64-.48-.83c-.2-.18-.45-.28-.72-.28-.41 0-.75.21-.99.62-.25.41-.37 1.03-.38 1.86 0 .56.06 1.02.17 1.4q.165.555.48.84c.21.19.45.28.72.28zm6.88 1.28c-.61 0-1.14-.15-1.57-.45-.44-.3-.78-.73-1.01-1.3-.24-.57-.35-1.25-.35-2.04s.12-1.47.35-2.03c.24-.56.57-.98 1.01-1.28.44-.29.96-.44 1.57-.44s1.13.15 1.57.44.78.72 1.01 1.28c.24.56.35 1.23.35 2.03s-.12 1.48-.35 2.05c-.24.57-.57 1-1.01 1.3s-.96.45-1.57.45zm0-1.28c.42 0 .75-.21 1-.63s.37-1.05.37-1.89c0-.55-.06-1.01-.17-1.38s-.27-.64-.48-.83c-.2-.18-.45-.28-.72-.28-.41 0-.75.21-.99.62-.25.41-.37 1.03-.38 1.86 0 .56.06 1.02.17 1.4q.165.555.48.84c.21.19.45.28.72.28z"/><path fill="url(#bcspx_full__paint0_linear_2584_5)" fill-rule="evenodd" d="M4.11 16c0-6.62 5.38-12 12-12 .28 0 .55.02.82.04.72-.73 1.58-1.28 2.51-1.63-1.07-.26-2.18-.42-3.33-.42-7.73.01-14 6.28-14 14.01 0 1.36.2 2.67.57 3.91.77.63 1.68 1.1 2.67 1.36-.78-1.59-1.24-3.38-1.24-5.28z" clip-rule="evenodd"/><path fill="url(#bcspx_full__paint1_linear_2584_5)" fill-rule="evenodd" d="M26.06 22.7c-2.16 3.2-5.81 5.3-9.95 5.3-4.73 0-8.81-2.75-10.77-6.73-.99-.26-1.9-.73-2.67-1.36 1.69 5.83 7.07 10.1 13.44 10.1 3.98 0 7.56-1.67 10.11-4.33.16-.98.12-1.99-.15-2.97z" clip-rule="evenodd"/><path fill="url(#bcspx_full__paint2_linear_2584_5)" fill-rule="evenodd" d="M16.92 4.04c6.24.42 11.19 5.61 11.19 11.96 0 2.48-.76 4.79-2.05 6.71.27.98.31 1.99.15 2.97 2.41-2.52 3.9-5.92 3.9-9.67 0-6.58-4.56-12.09-10.68-13.59-.93.35-1.79.9-2.51 1.63z" clip-rule="evenodd"/></g><defs><linearGradient id="bcspx_full__paint0_linear_2584_5" x1=".849" x2="24.06" y1="16.017" y2="16.017" gradientUnits="userSpaceOnUse"><stop stop-color="#fff" stop-opacity=".25"/><stop offset="1" stop-color="#fff" stop-opacity=".75"/></linearGradient><linearGradient id="bcspx_full__paint1_linear_2584_5" x1="7.917" x2="31.142" y1="15.968" y2="15.968" gradientUnits="userSpaceOnUse"><stop stop-color="#fff" stop-opacity=".75"/><stop offset="1" stop-color="#fff" stop-opacity=".25"/></linearGradient><linearGradient id="bcspx_full__paint2_linear_2584_5" x1="17.27" x2="26.84" y1="14.04" y2="14.04" gradientUnits="userSpaceOnUse"><stop stop-color="#fff" stop-opacity=".25"/><stop offset="1" stop-color="#fff" stop-opacity=".75"/></linearGradient><clipPath id="bcspx_full__clip0_2584_5"><path fill="#fff" d="M0 0h32v32H0z"/></clipPath></defs></svg>