<svg width="32" height="32" fill="none" viewBox="0 0 32 32" xmlns="http://www.w3.org/2000/svg"><g clip-path="url(#weth_full__clip0_3314_1851)"><path fill="#fff" d="M16 32c8.837 0 16-7.163 16-16S24.837 0 16 0 0 7.164 0 16s7.164 16 16 16"/><path fill="#000" fill-rule="evenodd" d="M17.61 2.84c-7.95 0-14.39 6.53-14.39 14.58S9.66 32 17.61 32 32 25.47 32 17.42 25.56 2.84 17.61 2.84" clip-rule="evenodd"/><path fill="#000" fill-rule="evenodd" d="m27.93 7.27-.11-.13c-.42-.43-.88-.83-1.35-1.2L23.9 3.65C21.36 1.38 18.04 0 14.39 0 6.44 0 0 6.53 0 14.58A14.6 14.6 0 0 0 5.47 26l2.93 2.6s.06.05.08.08l.02.02c2.48 2.06 5.65 3.3 9.11 3.3C25.56 32 32 25.47 32 17.42c0-3.95-1.55-7.52-4.07-10.15" clip-rule="evenodd"/><path fill="#d83878" fill-rule="evenodd" d="M3.23 17.42c0-8.05 6.44-14.58 14.39-14.58.79 0 1.55.08 2.3.2a12.4 12.4 0 0 0-5.53-1.3c-7 0-12.67 5.75-12.67 12.84 0 2.64.79 5.1 2.14 7.14-.41-1.36-.64-2.81-.64-4.3z" clip-rule="evenodd"/><path fill="#fff" fill-rule="evenodd" d="M17.61 4.58c-7 0-12.67 5.75-12.67 12.84s5.67 12.84 12.67 12.84 12.67-5.75 12.67-12.84S24.61 4.58 17.61 4.58" clip-rule="evenodd"/><path fill="#000" d="M11.5 17.63a5 5 0 0 0-.11.64c0-.04-.01-.08-.02-.12a7 7 0 0 0-.15-.51l-.61-1.73H9.45l-.61 1.73c-.07.19-.11.37-.14.52 0 .05 0 .08-.02.13-.01-.08-.02-.15-.04-.23q-.045-.195-.09-.42l-.57-2.21H6.47l1.39 4.9h1.26l.86-2.39.96 2.39h1.19l1.41-4.9h-1.46l-.57 2.21zm3.97.78h1.96v-1.14h-1.96v-.63h2.22v-1.22h-3.67v4.9h3.79v-1.23h-2.34zm2.88-1.71h1.51v3.62h1.51V16.7h1.56v-1.28h-4.58zm8.27-1.28v1.8h-1.41v-1.8H23.7v4.9h1.51v-1.79h1.41v1.79h1.51v-4.9z"/></g><defs><clipPath id="weth_full__clip0_3314_1851"><path fill="#fff" d="M0 0h32v32H0z"/></clipPath></defs></svg>